<svg width="259" height="31" viewBox="0 0 259 31" fill="none" xmlns="http://www.w3.org/2000/svg">
<path d="M102.991 16.9326V19.9626C102.991 20.8092 103.214 21.3885 103.66 21.7895C104.105 22.1905 104.818 22.3687 105.843 22.3687C106.511 22.3687 107.224 22.2796 107.893 22.1014C108.294 21.9677 108.606 22.0123 108.739 22.1014C108.873 22.2351 108.962 22.5024 108.962 22.948V23.1262C108.962 23.5273 108.918 23.8392 108.784 24.0174C108.65 24.1956 108.383 24.3293 107.937 24.5075C107.403 24.6858 106.69 24.7749 105.799 24.7749C104.016 24.7749 102.679 24.3739 101.788 23.6164C100.897 22.8589 100.496 21.6558 100.496 20.0072V16.9326C100.496 15.3286 100.942 14.1255 101.877 13.2789C102.769 12.4323 104.105 12.0312 105.843 12.0312C106.69 12.0312 107.403 12.1204 107.982 12.3432C108.427 12.5214 108.695 12.6551 108.828 12.8333C108.962 13.0115 109.007 13.2789 109.007 13.6799V13.8581C109.007 14.3037 108.918 14.5711 108.784 14.7047C108.606 14.8384 108.338 14.8384 107.937 14.7047C107.18 14.4819 106.511 14.3928 105.843 14.3928C104.863 14.3928 104.194 14.6156 103.749 15.0166C103.214 15.4177 102.991 16.0415 102.991 16.9326Z" fill="white"/>
<path d="M112.884 18.4452V23.4357C112.884 23.8367 112.839 24.1486 112.705 24.2823C112.572 24.4159 112.304 24.5051 111.859 24.5051H111.502C111.101 24.5051 110.789 24.4605 110.656 24.2823C110.522 24.1486 110.478 23.8812 110.478 23.4357V18.2669C110.478 17.153 110.834 16.3064 111.458 15.7271C112.082 15.1478 113.106 14.8359 114.399 14.8359H114.577C114.933 14.8359 115.201 14.9251 115.334 15.1033C115.468 15.2815 115.513 15.5934 115.513 16.039V16.2618C115.513 16.6628 115.468 16.9302 115.334 17.0638C115.201 17.1975 114.933 17.2421 114.532 17.1975H114.399C113.819 17.1975 113.463 17.2866 113.24 17.4649C113.017 17.5985 112.884 17.955 112.884 18.4452Z" fill="white"/>
<path d="M125.137 18.8923C125.137 18.9814 125.137 19.2488 125.092 19.6498C125.047 20.0508 124.914 20.3627 124.78 20.4964C124.602 20.6301 124.335 20.7192 123.844 20.7192H119.077V20.9866C119.077 21.4767 119.255 21.8332 119.656 22.0559C120.057 22.2787 120.681 22.4124 121.527 22.4124C122.151 22.4124 122.909 22.3233 123.8 22.1451C124.201 22.0559 124.468 22.1005 124.602 22.1896C124.736 22.3233 124.78 22.5906 124.78 23.0362V23.259C124.78 23.66 124.736 23.972 124.602 24.1056C124.468 24.2839 124.201 24.373 123.8 24.5066C123.221 24.6849 122.463 24.7294 121.483 24.7294C119.79 24.7294 118.542 24.4175 117.784 23.7492C116.982 23.0808 116.626 22.0559 116.626 20.5855V19.0706C116.626 16.2188 118.096 14.793 120.993 14.793C123.755 14.8375 125.137 16.1743 125.137 18.8923ZM119.121 18.4022V18.6695H122.82V18.4022C122.82 17.4219 122.196 16.9763 120.948 16.9763C119.745 16.9318 119.121 17.4219 119.121 18.4022Z" fill="white"/>
<path d="M134.493 18.0887V21.6979C134.493 22.7227 134.137 23.5248 133.513 23.9704C132.845 24.4605 131.82 24.7278 130.439 24.7278C129.057 24.7278 128.032 24.5051 127.364 24.0149C126.696 23.5248 126.384 22.7673 126.384 21.7425C126.384 19.7819 127.676 18.8016 130.216 18.8016H132.132V18.0887C132.132 17.6877 131.954 17.3758 131.686 17.1975C131.374 17.0193 130.884 16.9302 130.171 16.9302C129.637 16.9302 129.102 16.9747 128.523 17.0638C128.122 17.1084 127.81 17.1084 127.676 16.9747C127.542 16.8411 127.453 16.5737 127.453 16.1727V16.0836C127.453 15.6825 127.498 15.4152 127.631 15.237C127.765 15.1033 128.032 14.9696 128.433 14.9251C129.013 14.8805 129.547 14.8359 129.948 14.8359C131.508 14.8359 132.622 15.1033 133.379 15.638C134.137 16.0836 134.493 16.9302 134.493 18.0887ZM132.043 21.5642V20.6731H130.082C129.191 20.6731 128.745 21.0295 128.745 21.6979C128.79 22.0989 128.924 22.3663 129.146 22.4999C129.369 22.6336 129.77 22.7227 130.305 22.6782C130.884 22.6782 131.285 22.6336 131.553 22.4554C131.864 22.2772 131.998 22.0098 132.043 21.5642Z" fill="white"/>
<path d="M135.475 16.443V16.3538C135.475 15.9528 135.519 15.73 135.653 15.5518C135.787 15.3736 136.009 15.2845 136.41 15.1953L137.212 15.0171L137.435 13.5467C137.48 13.1457 137.613 12.9229 137.747 12.7446C137.925 12.611 138.148 12.5664 138.549 12.5664H138.683C139.084 12.5664 139.351 12.611 139.485 12.7446C139.619 12.8783 139.663 13.1457 139.663 13.5467V15.0171H141.802C142.203 15.0171 142.515 15.0617 142.648 15.2399C142.782 15.3736 142.827 15.6409 142.827 16.0865V16.3093C142.827 16.7103 142.782 17.0222 142.648 17.1559C142.515 17.2896 142.247 17.3787 141.802 17.3787H139.663V21.1216C139.663 21.9682 140.064 22.3692 140.822 22.3692C141.312 22.3692 141.757 22.3246 142.158 22.2355C142.559 22.1464 142.871 22.191 143.005 22.2355C143.139 22.3246 143.183 22.592 143.183 22.993V23.2158C143.183 23.6168 143.094 23.9733 142.96 24.1515C142.827 24.3298 142.559 24.4634 142.158 24.5526C141.846 24.6417 141.401 24.6862 140.822 24.6862C138.415 24.6862 137.168 23.4832 137.168 21.077V17.4232H136.41C136.009 17.4232 135.787 17.3787 135.653 17.245C135.564 17.0668 135.475 16.7994 135.475 16.443Z" fill="white"/>
<path d="M152.674 18.8923C152.674 18.9814 152.674 19.2488 152.629 19.6498C152.585 20.0508 152.451 20.3627 152.317 20.4964C152.139 20.6301 151.872 20.7192 151.382 20.7192H146.614V20.9866C146.614 21.4767 146.792 21.8332 147.193 22.0559C147.594 22.2787 148.218 22.4124 149.064 22.4124C149.688 22.4124 150.446 22.3233 151.337 22.1451C151.738 22.0559 152.005 22.1005 152.139 22.1896C152.273 22.3233 152.317 22.5906 152.317 23.0362V23.259C152.317 23.66 152.273 23.972 152.139 24.1056C152.005 24.2839 151.738 24.373 151.337 24.5066C150.758 24.6849 150 24.7294 149.02 24.7294C147.327 24.7294 146.079 24.4175 145.322 23.7492C144.52 23.0808 144.163 22.0559 144.163 20.5855V19.0706C144.163 16.2188 145.633 14.793 148.53 14.793C151.292 14.8375 152.674 16.1743 152.674 18.8923ZM146.614 18.4022V18.6695H150.312V18.4022C150.312 17.4219 149.688 16.9763 148.441 16.9763C147.238 16.9318 146.614 17.4219 146.614 18.4022Z" fill="white"/>
<path d="M156.951 12.207H159.669C162.343 12.207 163.679 13.321 163.679 15.5043C163.679 16.6628 163.189 17.554 162.209 18.1333C162.877 18.4452 163.368 18.8462 163.635 19.2918C163.902 19.7374 164.036 20.3166 164.036 20.985C164.036 23.3466 162.655 24.5051 159.847 24.5051H156.951C156.149 24.5051 155.57 24.3268 155.213 23.9704C154.857 23.6139 154.679 23.0347 154.679 22.2326V14.4795C154.679 13.6774 154.857 13.0982 155.213 12.7417C155.57 12.3853 156.149 12.207 156.951 12.207ZM159.669 14.5686H157.798C157.397 14.5686 157.219 14.7468 157.219 15.1479V17.153H159.669C160.649 17.153 161.095 16.7074 161.095 15.8608C161.14 15.0142 160.649 14.5686 159.669 14.5686ZM159.847 19.2918H157.219V21.5642C157.219 21.9653 157.397 22.1435 157.798 22.1435H159.847C160.961 22.1435 161.496 21.6979 161.496 20.7622C161.496 19.7819 160.961 19.2918 159.847 19.2918Z" fill="white"/>
<path d="M168.002 16.085L169.249 21.7885C169.338 22.1004 169.427 22.3232 169.561 22.4123C169.695 22.5014 169.873 22.5905 170.14 22.5905C170.319 22.5905 170.497 22.546 170.586 22.4123C170.675 22.2786 170.764 22.1004 170.853 21.7885L172.101 16.085C172.19 15.684 172.324 15.4166 172.502 15.2384C172.68 15.1047 172.948 15.0156 173.393 15.0156H173.794C174.195 15.0156 174.507 15.0602 174.596 15.2384C174.685 15.3721 174.73 15.6394 174.596 16.085L172.68 24.5065C172.413 25.8433 171.923 26.8235 171.254 27.5365C170.586 28.2048 169.695 28.6504 168.625 28.7841C168.18 28.8287 167.868 28.8287 167.734 28.7395C167.556 28.6504 167.467 28.3385 167.378 27.9375V27.8484C167.289 27.4474 167.289 27.18 167.378 27.0018C167.467 26.8235 167.734 26.7344 168.091 26.6453C169.205 26.378 169.873 25.7541 170.14 24.6848C170.007 24.7293 169.739 24.7739 169.338 24.7739C168.625 24.7739 168.091 24.5511 167.734 24.1946C167.378 23.7936 167.11 23.1252 166.888 22.1449L165.506 16.1296C165.417 15.7286 165.417 15.4612 165.506 15.283C165.595 15.1493 165.907 15.0602 166.308 15.0602H166.709C167.11 15.0602 167.422 15.1047 167.601 15.283C167.734 15.4167 167.868 15.6394 168.002 16.085Z" fill="white"/>
<path d="M175.31 16.443V16.3538C175.31 15.9528 175.354 15.73 175.488 15.5518C175.621 15.3736 175.844 15.2845 176.245 15.1953L177.047 15.0171L177.27 13.5467C177.315 13.1457 177.448 12.9229 177.582 12.7446C177.76 12.611 177.983 12.5664 178.384 12.5664H178.518C178.919 12.5664 179.186 12.611 179.32 12.7446C179.453 12.8783 179.498 13.1457 179.498 13.5467V15.0171H181.637C182.038 15.0171 182.35 15.0617 182.483 15.2399C182.617 15.3736 182.662 15.6409 182.662 16.0865V16.3093C182.662 16.7103 182.617 17.0222 182.483 17.1559C182.35 17.2896 182.082 17.3787 181.637 17.3787H179.453V21.1216C179.453 21.9682 179.854 22.3692 180.612 22.3692C181.102 22.3692 181.548 22.3246 181.949 22.2355C182.35 22.1464 182.662 22.191 182.795 22.2355C182.929 22.3246 182.974 22.592 182.974 22.993V23.2158C182.974 23.6168 182.884 23.9733 182.751 24.1515C182.617 24.3298 182.35 24.4634 181.949 24.5526C181.637 24.6417 181.191 24.6862 180.612 24.6862C178.206 24.6862 176.958 23.4832 176.958 21.077V17.4232H176.201C175.8 17.4232 175.577 17.3787 175.443 17.245C175.399 17.0668 175.31 16.7994 175.31 16.443Z" fill="white"/>
<path d="M192.508 18.8923C192.508 18.9814 192.508 19.2488 192.463 19.6498C192.419 20.0508 192.285 20.3627 192.151 20.4964C191.973 20.6301 191.706 20.7192 191.215 20.7192H186.448V20.9866C186.448 21.4767 186.626 21.8332 187.027 22.0559C187.428 22.2787 188.052 22.4124 188.898 22.4124C189.522 22.4124 190.28 22.3233 191.171 22.1451C191.572 22.0559 191.839 22.1005 191.973 22.1896C192.107 22.3233 192.151 22.5906 192.151 23.0362V23.259C192.151 23.66 192.107 23.972 191.973 24.1056C191.839 24.2839 191.572 24.373 191.171 24.5066C190.592 24.6849 189.834 24.7294 188.854 24.7294C187.161 24.7294 185.913 24.4175 185.156 23.7492C184.354 23.0808 183.997 22.0559 183.997 20.5855V19.0706C183.997 16.2188 185.467 14.793 188.364 14.793C191.126 14.8375 192.508 16.1743 192.508 18.8923ZM186.448 18.4022V18.6695H190.146V18.4022C190.146 17.4219 189.522 16.9763 188.275 16.9763C187.072 16.9318 186.448 17.4219 186.448 18.4022Z" fill="white"/>
<path d="M193.846 23.2597V23.0369C193.846 22.5914 193.935 22.2795 194.068 22.1903C194.202 22.0567 194.47 22.0567 194.871 22.1903C195.539 22.4131 196.43 22.5023 197.41 22.5023C197.99 22.5023 198.346 22.4577 198.569 22.3686C198.747 22.2795 198.881 22.1458 198.881 21.923C198.881 21.7448 198.792 21.6111 198.658 21.522C198.48 21.4329 198.168 21.2546 197.678 21.0764L195.94 20.3189C195.227 20.007 194.737 19.6951 194.425 19.2941C194.113 18.893 193.979 18.3583 193.979 17.6454C193.979 16.6651 194.291 15.9968 194.915 15.5512C195.494 15.1056 196.475 14.8828 197.856 14.8828C198.569 14.8828 199.237 14.9719 199.861 15.1056C200.262 15.1947 200.574 15.3284 200.708 15.5066C200.841 15.6849 200.886 15.9522 200.886 16.3532V16.5315C200.886 16.9325 200.797 17.2444 200.663 17.3781C200.529 17.5117 200.262 17.5117 199.817 17.3781C199.193 17.1998 198.524 17.1553 197.811 17.1553C197.277 17.1553 196.92 17.1998 196.697 17.2889C196.519 17.3781 196.386 17.5117 196.386 17.69C196.386 17.8236 196.43 17.9128 196.564 18.0019C196.653 18.091 196.876 18.1801 197.188 18.3138L199.148 19.1158C199.906 19.4277 200.485 19.7842 200.797 20.2298C201.109 20.6754 201.287 21.2546 201.287 21.9676C201.287 22.9924 200.975 23.7053 200.307 24.1509C199.683 24.5965 198.658 24.8193 197.232 24.8193C196.252 24.8193 195.494 24.7302 194.871 24.5965C194.47 24.5074 194.158 24.3737 194.024 24.1955C193.935 23.9281 193.846 23.6608 193.846 23.2597Z" fill="white"/>
<path d="M87.5741 21.5662L84.5442 16.2637L84.3659 15.9073C84.0094 15.328 83.2965 15.1052 82.7173 15.4617L80.935 16.4865C80.7567 16.5756 80.6231 16.6648 80.4894 16.7539C80.4894 16.7539 80.4894 16.7539 80.4448 16.7539C80.1775 16.9321 79.9101 17.1549 79.6873 17.3777C79.0189 18.0461 78.5734 18.8927 78.3951 19.8729C78.3951 19.9621 78.3951 20.0512 78.3506 20.1403C78.1723 21.076 77.7268 21.9672 77.0584 22.6355C76.2118 23.4821 75.0533 24.0168 73.7611 24.0168C71.1767 24.0168 69.0825 21.9226 69.0825 19.3382C69.0825 18.0461 69.6172 16.843 70.4638 16.0409C71.355 15.1943 72.5135 14.6596 73.8057 14.6596C74.3404 14.6596 74.875 14.7487 75.3652 14.927C75.4543 14.9715 75.5434 14.9715 75.6325 15.0161C76.1227 15.1943 76.6128 15.2834 77.1921 15.2834C77.905 15.2834 78.6179 15.1052 79.1972 14.8379C79.3754 14.7487 79.5982 14.6151 79.7764 14.4814L81.4696 13.5011L81.6479 13.412C81.6924 13.3674 81.7816 13.3229 81.8261 13.2783C82.0489 13.0555 82.1826 12.7436 82.1826 12.4317C82.1826 12.2089 82.138 12.0307 82.0489 11.897L82.0043 11.7634L81.9598 11.6742L81.8261 11.4514L78.7961 6.19359L75.989 1.29219L75.8999 1.11395C75.8107 0.935721 75.7216 0.802049 75.5434 0.712933C75.1424 0.267352 74.5186 0 73.8947 0C73.2264 0 72.6471 0.267352 72.2015 0.712933C72.1124 0.802049 72.0233 0.935723 71.9342 1.02484C71.9342 1.0694 71.8896 1.0694 71.8896 1.11395L71.756 1.33674L71.7114 1.38131L57.1854 26.6458C56.6953 27.4924 56.7844 28.4727 57.2746 29.1856C57.6756 29.8094 58.3885 30.2104 59.2351 30.2104H88.4207C90.2476 30.2104 91.4061 28.2053 90.4704 26.6012L87.5741 21.5662Z" fill="white"/>
<path d="M89.2226 5.52344C87.9304 5.52344 86.7718 6.05813 85.9252 6.90474C85.0786 7.75134 84.5439 8.95442 84.5439 10.202C84.5439 10.6031 84.5885 11.0486 84.7222 11.4497C84.945 12.2517 85.346 12.9646 85.9252 13.5439C86.7718 14.3905 87.9304 14.9252 89.2226 14.9252C90.5147 14.9252 91.6733 14.3905 92.5199 13.5439C93.3665 12.6973 93.9012 11.4942 93.9012 10.2466C93.9012 7.66222 91.8069 5.52344 89.2226 5.52344Z" fill="white"/>
</svg>
